<svg width="42" height="38" viewBox="0 0 42 38" fill="none" xmlns="http://www.w3.org/2000/svg">
<path d="M41.7838 29.5877L34.8504 36.8542C34.6997 37.0121 34.5173 37.1379 34.3146 37.2239C34.112 37.3099 33.8934 37.3543 33.6725 37.3542H0.804916C0.648085 37.3542 0.494673 37.3094 0.36353 37.2254C0.232384 37.1413 0.129219 37.0217 0.0667077 36.8811C0.0041968 36.7405 -0.0149362 36.5852 0.0116595 36.4342C0.0382551 36.2831 0.109421 36.1429 0.216413 36.0309L7.15501 28.7643C7.30534 28.6069 7.48711 28.4813 7.68908 28.3953C7.8911 28.3093 8.109 28.2648 8.32935 28.2644H41.1951C41.3519 28.2644 41.5053 28.3092 41.6366 28.3932C41.7676 28.4773 41.8707 28.5969 41.9335 28.7375C41.9959 28.8781 42.015 29.0334 41.9884 29.1844C41.9618 29.3355 41.8906 29.4756 41.7838 29.5877ZM34.8504 14.9549C34.6997 14.797 34.5173 14.6712 34.3146 14.5852C34.112 14.4992 33.8934 14.4548 33.6725 14.455H0.804916C0.648085 14.455 0.494673 14.4997 0.36353 14.5838C0.232384 14.6678 0.129219 14.7875 0.0667077 14.928C0.0041968 15.0686 -0.0149362 15.2239 0.0116595 15.375C0.0382551 15.526 0.109421 15.6661 0.216413 15.7782L7.15501 23.0448C7.30534 23.2022 7.48711 23.3278 7.68908 23.4138C7.8911 23.4998 8.109 23.5444 8.32935 23.5447H41.1951C41.3519 23.5447 41.5053 23.4999 41.6366 23.4159C41.7676 23.3318 41.8707 23.2122 41.9335 23.0717C41.9959 22.9311 42.015 22.7757 41.9884 22.6247C41.9618 22.4737 41.8906 22.3335 41.7838 22.2214L34.8504 14.9549ZM0.804916 9.73528H33.6725C33.8934 9.73536 34.112 9.69106 34.3146 9.60505C34.5173 9.51903 34.6997 9.39318 34.8504 9.23533L41.7838 1.96877C41.8906 1.85671 41.9618 1.71656 41.9884 1.56552C42.015 1.41448 41.9959 1.25914 41.9335 1.11858C41.8707 0.978026 41.7676 0.858375 41.6366 0.774331C41.5053 0.690288 41.3519 0.645513 41.1951 0.645508H8.32935C8.109 0.645874 7.8911 0.690434 7.68908 0.776428C7.48711 0.862422 7.30534 0.988019 7.15501 1.14545L0.218202 8.41202C0.111313 8.52394 0.0401785 8.66397 0.0135225 8.81481C-0.0131335 8.96569 0.00584773 9.12091 0.0681382 9.2614C0.130429 9.4019 0.233321 9.52154 0.364196 9.60572C0.495072 9.6899 0.648239 9.73491 0.804916 9.73528Z" fill="url(#paint0_linear_458_2220)"/>
<defs>
<linearGradient id="paint0_linear_458_2220" x1="3.54529" y1="38.229" x2="37.127" y2="-0.508806" gradientUnits="userSpaceOnUse">
<stop offset="0.08" stop-color="#9945FF"/>
<stop offset="0.3" stop-color="#8752F3"/>
<stop offset="0.5" stop-color="#5497D5"/>
<stop offset="0.6" stop-color="#43B4CA"/>
<stop offset="0.72" stop-color="#28E0B9"/>
<stop offset="0.97" stop-color="#19FB9B"/>
</linearGradient>
</defs>
</svg>
