<svg width="32" height="32" viewBox="0 0 32 32" fill="none" xmlns="http://www.w3.org/2000/svg">
<path d="M15.2375 21.2375C14.5563 21.9187 13.4437 21.9187 12.7625 21.2375L8.7625 17.2375C8.08125 16.5562 8.08125 15.4437 8.7625 14.7625C9.44375 14.0813 10.5563 14.0813 11.2375 14.7625L14 17.525L20.7625 10.7625C21.4438 10.0813 22.5562 10.0813 23.2375 10.7625C23.9187 11.4437 23.9187 12.5563 23.2375 13.2375L15.2375 21.2375ZM32 16C32 24.8375 24.8375 32 16 32C7.1625 32 0 24.8375 0 16C0 7.1625 7.1625 0 16 0C24.8375 0 32 7.1625 32 16ZM16 3C8.81875 3 3 8.81875 3 16C3 23.1812 8.81875 29 16 29C23.1812 29 29 23.1812 29 16C29 8.81875 23.1812 3 16 3Z" fill="url(#paint0_linear_508_3186)"/>
<defs>
<linearGradient id="paint0_linear_508_3186" x1="0" y1="16" x2="32" y2="16" gradientUnits="userSpaceOnUse">
<stop stop-color="#00F9A9"/>
<stop offset="1" stop-color="#00FFFF"/>
</linearGradient>
</defs>
</svg>
