<svg width="12" height="11" viewBox="0 0 12 11" fill="none" xmlns="http://www.w3.org/2000/svg">
<path d="M6.603 0.541504C6.49258 0.312337 6.25925 0.166504 6.003 0.166504C5.74675 0.166504 5.5155 0.312337 5.403 0.541504L4.06342 3.29775L1.07175 3.73942C0.821749 3.77692 0.613416 3.95192 0.536332 4.1915C0.459249 4.43109 0.521749 4.69567 0.700915 4.87275L2.87175 7.02067L2.35925 10.0561C2.31758 10.3061 2.42175 10.5603 2.628 10.7082C2.83425 10.8561 3.10717 10.8748 3.33217 10.7561L6.00508 9.329L8.678 10.7561C8.903 10.8748 9.17592 10.8582 9.38217 10.7082C9.58842 10.5582 9.69258 10.3061 9.65092 10.0561L9.13633 7.02067L11.3072 4.87275C11.4863 4.69567 11.5509 4.43109 11.4717 4.1915C11.3926 3.95192 11.1863 3.77692 10.9363 3.73942L7.94258 3.29775L6.603 0.541504Z" fill="url(#paint0_linear_850_7950)"/>
<defs>
<linearGradient id="paint0_linear_850_7950" x1="12.4132" y1="17.5851" x2="-6.33944" y2="16.9872" gradientUnits="userSpaceOnUse">
<stop stop-color="#00FFFF"/>
<stop offset="1" stop-color="#00F9A9"/>
</linearGradient>
</defs>
</svg>
