<svg width="24" height="24" viewBox="0 0 24 24" fill="none" xmlns="http://www.w3.org/2000/svg">
<path d="M17.0288 8.8271C15.4222 8.8271 14.1152 7.52008 14.1152 5.91355C14.1152 4.30701 15.4222 3 17.0288 3C18.6353 3 19.9423 4.30701 19.9423 5.91355C19.9423 7.52008 18.6353 8.8271 17.0288 8.8271ZM17.0288 4.35239C16.1756 4.35239 15.4767 5.05128 15.4767 5.90447C15.4767 6.75766 16.1756 7.45655 17.0288 7.45655C17.882 7.45655 18.5809 6.75766 18.5809 5.90447C18.5809 5.05128 17.882 4.35239 17.0288 4.35239Z" fill="white"/>
<path d="M6.97215 8.8271C5.36561 8.8271 4.05859 7.52008 4.05859 5.91355C4.05859 4.30701 5.36561 3 6.97215 3C8.57868 3 9.88569 4.30701 9.88569 5.91355C9.88569 7.52008 8.57868 8.8271 6.97215 8.8271ZM6.97215 4.35239C6.11896 4.35239 5.42007 5.05128 5.42007 5.90447C5.42007 6.75766 6.11896 7.45655 6.97215 7.45655C7.82534 7.45655 8.52422 6.75766 8.52422 5.90447C8.52422 5.05128 7.83441 4.35239 6.97215 4.35239Z" fill="white"/>
<path d="M17.0288 19.9999C15.4222 19.9999 14.1152 18.6929 14.1152 17.0864C14.1152 15.4799 15.4222 14.1729 17.0288 14.1729C18.6353 14.1729 19.9423 15.4799 19.9423 17.0864C19.9423 18.6929 18.6353 19.9999 17.0288 19.9999ZM17.0288 15.5252C16.1756 15.5252 15.4767 16.2241 15.4767 17.0773C15.4767 17.9305 16.1756 18.6294 17.0288 18.6294C17.882 18.6294 18.5809 17.9305 18.5809 17.0773C18.5809 16.2241 17.882 15.5252 17.0288 15.5252Z" fill="white"/>
<path d="M6.97215 19.9999C5.36561 19.9999 4.05859 18.6929 4.05859 17.0864C4.05859 15.4799 5.36561 14.1729 6.97215 14.1729C8.57868 14.1729 9.88569 15.4799 9.88569 17.0864C9.88569 18.6929 8.57868 19.9999 6.97215 19.9999ZM6.97215 15.5252C6.11896 15.5252 5.42007 16.2241 5.42007 17.0773C5.42007 17.9305 6.11896 18.6294 6.97215 18.6294C7.82534 18.6294 8.52422 17.9305 8.52422 17.0773C8.52422 16.2241 7.83441 15.5252 6.97215 15.5252Z" fill="white"/>
</svg>
