<svg width="82" height="87" viewBox="0 0 82 87" fill="none" xmlns="http://www.w3.org/2000/svg">
<path d="M27.5323 0C24.2186 0 21.5323 2.68629 21.5323 6V65.5493L10.2444 54.252C7.90226 51.9078 4.10327 51.9062 1.75914 54.2484C-0.584992 56.5906 -0.586579 60.3896 1.75558 62.7337L23.2952 84.2914C25.6374 86.6355 29.4363 86.6371 31.7805 84.2949C33.0288 83.0476 33.6128 81.3872 33.5323 79.7533V6C33.5323 2.68629 30.846 0 27.5323 0Z" fill="black"/>
<path d="M53.54 86.0508C56.8537 86.0508 59.54 83.3645 59.54 80.0508V20.5015L70.8278 31.7988C73.17 34.143 76.969 34.1445 79.3131 31.8024C81.6573 29.4602 81.6588 25.6612 79.3167 23.3171L57.7771 1.7594C55.4349 -0.584732 51.6359 -0.586327 49.2918 1.75584C48.0434 3.00314 47.4594 4.6636 47.54 6.29748V80.0508C47.54 83.3645 50.2263 86.0508 53.54 86.0508Z" fill="black"/>
</svg>
