<svg width="12" height="16" viewBox="0 0 12 16" fill="none" xmlns="http://www.w3.org/2000/svg">
<path d="M1 0C0.446875 0 0 0.446875 0 1C0 1.55313 0.446875 2 1 2V2.34375C1 3.66875 1.52813 4.94063 2.46563 5.87813L4.58437 8L2.46563 10.1219C1.52813 11.0594 1 12.3313 1 13.6562V14C0.446875 14 0 14.4469 0 15C0 15.5531 0.446875 16 1 16H2H10H11C11.5531 16 12 15.5531 12 15C12 14.4469 11.5531 14 11 14V13.6562C11 12.3313 10.4719 11.0594 9.53438 10.1219L7.41563 8L9.5375 5.87813C10.475 4.94063 11.0031 3.66875 11.0031 2.34375V2C11.5563 2 12.0031 1.55313 12.0031 1C12.0031 0.446875 11.5563 0 11.0031 0H10H2H1ZM3 2.34375V2H9V2.34375C9 2.9375 8.825 3.5125 8.5 4H3.5C3.17812 3.5125 3 2.9375 3 2.34375ZM3.5 12C3.60938 11.8344 3.7375 11.6781 3.87812 11.5344L6 9.41562L8.12187 11.5375C8.26562 11.6813 8.39062 11.8375 8.50313 12.0031H3.5V12Z" fill="white"/>
</svg>
